<?xml version="1.0" encoding="utf-8"?>
<!-- Generator: Adobe Illustrator 24.0.0, SVG Export Plug-In . SVG Version: 6.00 Build 0)  -->
<svg version="1.1" id="Layer_1" xmlns="http://www.w3.org/2000/svg" xmlns:xlink="http://www.w3.org/1999/xlink" x="0px" y="0px"
	 width="94.39px" height="94.39px" viewBox="0 0 94.39 94.39" style="enable-background:new 0 0 94.39 94.39;" xml:space="preserve"
	>
<style type="text/css">
	.st0{fill:#FFFFFF;}
</style>
<g>
	<g>
		<g>
			<g>
				<path d="M87.4,0H6.97C3.12,0,0,3.05,0,6.8v80.77c0,3.76,3.12,6.81,6.97,6.81H87.4c3.85,0,6.99-3.05,6.99-6.81V6.8
					C94.39,3.05,91.25,0,87.4,0z"/>
				<path class="st0" d="M13.99,35.38h14v45.04h-14V35.38z M21,12.99c4.48,0,8.11,3.64,8.11,8.11c0,4.48-3.64,8.12-8.11,8.12
					c-4.49,0-8.12-3.64-8.12-8.12C12.88,16.63,16.51,12.99,21,12.99"/>
				<path id="XMLID_3_" class="st0" d="M36.78,35.38H50.2v6.15h0.19c1.87-3.54,6.44-7.27,13.25-7.27c14.18,0,16.79,9.33,16.79,21.46
					v24.71H66.44V58.52c0-5.22-0.1-11.94-7.27-11.94c-7.28,0-8.4,5.69-8.4,11.56v22.28H36.78V35.38z"/>
			</g>
		</g>
	</g>
</g>
</svg>
