<?xml version="1.0" encoding="utf-8"?>
<!-- Generator: Adobe Illustrator 21.0.0, SVG Export Plug-In . SVG Version: 6.00 Build 0)  -->
<svg version="1.1" id="Layer_1" xmlns="http://www.w3.org/2000/svg" xmlns:xlink="http://www.w3.org/1999/xlink" x="0px" y="0px"
	 width="50px" height="78px" viewBox="0 0 50 78" style="enable-background:new 0 0 50 78;" xml:space="preserve">
<style type="text/css">
	.st0{fill:url(#SVGID_1_);}
	.st1{fill:url(#SVGID_2_);}
	.st2{fill:url(#SVGID_3_);}
	.st3{fill:url(#SVGID_4_);}
	.st4{fill:url(#SVGID_5_);}
	.st5{fill:url(#SVGID_6_);}
	.st6{fill:url(#SVGID_7_);}
	.st7{fill:url(#SVGID_8_);}
	.st8{fill:url(#SVGID_9_);}
	.st9{fill:#DFDFDF;}
</style>
<g>
	<g id="XMLID_1_">
		<g>
			<linearGradient id="SVGID_1_" gradientUnits="userSpaceOnUse" x1="37.3642" y1="45.171" x2="38.88" y2="45.171">
				<stop  offset="0" style="stop-color:#000000;stop-opacity:0.15"/>
				<stop  offset="1" style="stop-color:#231F20;stop-opacity:0.15"/>
			</linearGradient>
			<path class="st0" d="M38,45.2L38,45.2c0.4-0.9,0.6-1.8,0.9-2.8v5.3c-0.2-0.1-0.5-0.1-0.8,0c-0.4,0.1-0.6,0-0.7,0
				C37.4,47.7,37.2,47.2,38,45.2z"/>
			<linearGradient id="SVGID_2_" gradientUnits="userSpaceOnUse" x1="31.9402" y1="48.2366" x2="38.88" y2="48.2366">
				<stop  offset="0" style="stop-color:#000000;stop-opacity:0.15"/>
				<stop  offset="1" style="stop-color:#231F20;stop-opacity:0.15"/>
			</linearGradient>
			<path class="st1" d="M37.7,49.9c0.2,0,0.6-0.1,0.7,0.1c0.2,0.3,0.1,1-0.1,1.5l-0.7,1.8l1.3-1.2v6.1c-0.6-1.1-1.2-2.3-1.9-3.4
				c-3.8-6.8-7.4-13.1-3.2-16.3c0.7-0.3,1.3-0.3,1.7,0.1c1,0.9,1.2,3.9,0.3,6.5c-0.7,2-0.7,3.5,0,4.3C36,49.8,36.6,50.1,37.7,49.9z"
				/>
			<linearGradient id="SVGID_3_" gradientUnits="userSpaceOnUse" x1="29.0849" y1="54.2807" x2="41.6108" y2="54.2807">
				<stop  offset="0" style="stop-color:#000000;stop-opacity:0.35"/>
				<stop  offset="1" style="stop-color:#231F20;stop-opacity:0.35"/>
			</linearGradient>
			<path class="st2" d="M36.8,48.3c0.3,0.4,0.8,0.5,1.5,0.3c0.3-0.1,0.5,0,0.6,0.2c0,0,0,0,0,0.1c0.1,0.1,0.1,0.3,0.1,0.5
				c-0.1-0.1-0.1-0.1-0.2-0.2c-0.3-0.2-0.8-0.3-1.4-0.2c-0.5,0.1-0.9,0.1-1.2-0.2c-0.5-0.5-0.4-1.8,0.2-3.4c0.9-2.6,1-6.1-0.5-7.5
				c-0.5-0.4-1.3-0.8-2.7-0.2l0,0l0,0c-2.2,1.6-2.8,4.1-1.8,7.6c0.9,3,2.7,6.3,4.7,9.8c0.9,1.6,1.8,3.3,2.6,4.9
				c0.5,1.1,1,2.1,1.5,3.2c0.4,1,0.7,2,1,2.9c0.9,3.7,0,6.1-2.8,7.8c-1.8,0.9-3,0.3-3.5-0.1c0.5-0.8,0.9-1.5,1.3-2.3
				c0.2-0.5,0.4-1,0.5-1.5c0.2-0.5,0.3-1.1,0.4-1.6c0.3-1.8,0.3-3.6-0.1-5.3c-0.7-3.2-2.5-6-4.9-7.5c-0.3-0.6-1.4-3.4-2.2-6.8
				c-1.2-4.9-1.2-8.9,0-11.4c0.8-1.7,2.2-2.8,4.2-3.2c1.3-0.3,2.4-0.1,3.1,0.8c1.5,1.8,1.5,6-0.1,9.9C36.4,46.8,36.3,47.8,36.8,48.3
				z"/>
			<linearGradient id="SVGID_4_" gradientUnits="userSpaceOnUse" x1="17.6724" y1="58.9608" x2="36.607" y2="58.9608">
				<stop  offset="0" style="stop-color:#000000;stop-opacity:0.35"/>
				<stop  offset="1" style="stop-color:#231F20;stop-opacity:0.35"/>
			</linearGradient>
			<path class="st3" d="M20.9,46.8c0.4-1,1.3-3.3,2.2-6l1.1,0.3c-0.9,2.6-1.4,5.3-1.7,8c-0.3,2.7-0.3,5.4,0,8.2
				c0.5,4.5,1.6,7.4,1.7,7.7c0.1,0.3,1,3.3,2.9,3.8c0.2,0,0.3,0.1,0.5,0.1c0.4,0,0.9-0.1,1.3-0.4c0.6-0.4,1.1-1,1.4-1.7
				c0,0-2.4,1.3-3,1.2c-1.2-0.3-2-2.3-2.3-3.2c0-0.2-0.3-1.7,0-3.4c0.3-2.4,1.3-4.1,2.9-5c2.1-1.2,3.6-0.1,3.7,0l0,0
				c1.1,0.7,2.1,1.7,2.9,2.9c0.8,1.2,1.4,2.6,1.7,4.1c0.5,2.2,0.3,4.5-0.4,6.8c-0.2,0.5-0.4,1-0.6,1.5c-0.3,0.7-0.7,1.4-1.2,2.1v0
				c0,0-1.9,3.6-6.8,3.5c-2.8-0.1-5.2-1.5-7-4.1c-0.3-0.5-0.6-1-0.9-1.5c-0.2-0.5-0.4-1-0.6-1.5C16.7,64.2,17.4,55.7,20.9,46.8z"/>
			<linearGradient id="SVGID_5_" gradientUnits="userSpaceOnUse" x1="23.1507" y1="35.365" x2="38.88" y2="35.365">
				<stop  offset="0" style="stop-color:#000000;stop-opacity:0.15"/>
				<stop  offset="1" style="stop-color:#231F20;stop-opacity:0.15"/>
			</linearGradient>
			<path class="st4" d="M27.5,55.5c-1.9,1-3,3-3.4,5.6c0,0.1,0,0.2,0,0.3c-0.3-1.2-0.6-2.7-0.7-4.4c-0.5-4.2-0.4-10.6,2.3-17.5
				c0.5-1.2,1.1-2.8,1.9-4.6c3.1-7.2,7.8-18.2,8.4-25.9h2.9v27c-0.2-0.7-0.5-1.3-0.9-1.8c-0.6-0.8-1.9-1.6-4-1
				c-2.2,0.5-3.8,1.8-4.7,3.7c-0.8,1.5-1.1,3.5-1,5.8c0.1,1.8,0.4,3.9,0.9,6.2c0.6,2.5,1.4,4.7,1.9,5.9C30.2,54.8,29,54.7,27.5,55.5
				z"/>
			<linearGradient id="SVGID_6_" gradientUnits="userSpaceOnUse" x1="13.45" y1="45.945" x2="25.4794" y2="45.945">
				<stop  offset="0" style="stop-color:#000000;stop-opacity:0.15"/>
				<stop  offset="1" style="stop-color:#231F20;stop-opacity:0.15"/>
			</linearGradient>
			<path class="st5" d="M24.9,21.8c1.9,4.6-1.4,16-4.8,24.7c-2.2,5.5-3.3,11-3.3,15.8c0,2.9,0.4,5.5,1.2,7.8h-4.5V48.2
				c1.4-0.2,2.5-0.8,3.5-1.9c2-2.3,3-6.7,3-12.9c0-4.7-0.5-9.2-0.8-11.2c0.6,0.5,1.6,1,2.8,1C23.3,23.1,24.4,22.3,24.9,21.8z"/>
			<linearGradient id="SVGID_7_" gradientUnits="userSpaceOnUse" x1="13.45" y1="35.965" x2="15.205" y2="35.965">
				<stop  offset="0" style="stop-color:#000000;stop-opacity:0.15"/>
				<stop  offset="1" style="stop-color:#231F20;stop-opacity:0.15"/>
			</linearGradient>
			<path class="st6" d="M13.4,28.5c1.6,6.9,2.9,13.3,0,14.9V28.5z"/>
			<linearGradient id="SVGID_8_" gradientUnits="userSpaceOnUse" x1="11.6394" y1="13.485" x2="12" y2="13.485">
				<stop  offset="0" style="stop-color:#000000;stop-opacity:0.35"/>
				<stop  offset="1" style="stop-color:#231F20;stop-opacity:0.35"/>
			</linearGradient>
			<path class="st7" d="M12,9.6v7.8c-0.2-1.5-0.4-2.9-0.4-4.3C11.6,11.8,11.8,10.6,12,9.6z"/>
			<linearGradient id="SVGID_9_" gradientUnits="userSpaceOnUse" x1="9.04" y1="24.1701" x2="35.141" y2="24.1701">
				<stop  offset="0" style="stop-color:#000000;stop-opacity:0.35"/>
				<stop  offset="1" style="stop-color:#231F20;stop-opacity:0.35"/>
			</linearGradient>
			<path class="st8" d="M23.1,40.8c2.1-6.4,4.5-15.6,2.5-19.7c0.3-0.5,1-1.8,1.4-2.8c-0.1,0.2-1.1,1.7-1.5,2.1
				C25,21.1,24,21.8,23.1,22c-0.4,0.1-0.8,0.2-1.3,0.2c-1.6,0-2.7-1.3-3-1.5c-1.4-1-1.8-4.5-1.8-4.5c-0.2,1.4,0,2.1,0.2,2.9
				c0.2,1,0.6,1.6,0.8,2c0,0.1,0,0.1,0,0.1c0,0.2,0,0.4,0.1,0.6c2,15.4,0.1,21.5-1.9,23.8c-0.8,0.9-1.7,1.4-2.8,1.6
				c-0.2,0-0.4,0.1-0.7,0.1c-0.2,0-0.5,0-0.8-0.1C10.9,47,9.4,46,9.2,43.5c-0.1-1.4,0-2.4,0.1-3.2c0.1-0.4,0.1-0.8,0.1-1
				c0-0.3-0.2-0.6-0.4-0.8c0.1,0,0.1,0,0.1,0.1c0.2,0.1,0.4,0.2,0.5,0.3c0.3,0.5,0.4,1.5,0.5,2.9c0,0.9,0.6,1.8,1.4,2.3
				c0.2,0.1,0.3,0.2,0.5,0.2c0.5,0.2,1,0.2,1.4,0c0.1,0,0.1,0,0.1,0c1-0.5,1.7-1.3,2.1-2.5c0.3-1,0.4-2.3,0.3-4
				c-0.2-3-1.1-6.8-2-10.8c-0.2-0.8-0.4-1.5-0.6-2.3c-0.6-2.5-1.1-5-1.4-7.3V9.6c0.2-0.7,0.4-1.3,0.7-1.8C13.4,6.4,14.5,5.5,16,5
				c3.6-1.2,5.4,1.6,6.1,2.8c0,0.1,0.1,0.2,0.1,0.2c0.1,0.1,0.2,0.6,0.4,1.2c0.6,2,0,5.3,0,5.3l0,0c0.8-1.2,1.2-2.7,1-4.2
				c0-0.4-0.1-0.7-0.2-1.1c-0.1-0.4-0.2-0.7-0.3-1c0,0,0,0,0,0l0,0c0,0,0-0.2,0.1-0.4c0.3-1.1,1.3-4.4,3.6-5.9
				c1.2-0.8,2.6-1,4.3-0.7c1.4,0.3,2.4,1.1,3.1,2.3c0.5,1.1,0.8,2.5,0.8,4.3c0,0.5,0,1-0.1,1.5c-0.2,2.4-0.8,5.3-1.8,8.6
				c-1.8,5.9-4.5,12.3-6.5,16.9c-0.8,1.8-1.5,3.4-1.9,4.6c-0.2,0.6-0.4,1.2-0.6,1.8L23.1,40.8z"/>
			<path class="st9" d="M13.4,43.4c2.9-1.6,1.6-8,0-14.9V43.4z M38.4,50c-0.1-0.2-0.5-0.1-0.7-0.1c-1.1,0.2-1.7-0.1-2-0.5
				c-0.7-0.8-0.7-2.3,0-4.3c0.9-2.6,0.8-5.6-0.3-6.5c-0.4-0.4-1-0.4-1.7-0.1c-4.2,3.2-0.6,9.6,3.2,16.3c0.6,1.1,1.3,2.3,1.9,3.4
				v-6.1l-1.3,1.2l0.7-1.8C38.5,51,38.7,50.2,38.4,50z M38.3,48.7c-0.7,0.2-1.2,0.1-1.5-0.3c-0.5-0.6-0.3-1.6,0.5-3.4
				c1.6-3.8,1.6-8.1,0.1-9.9c-0.7-0.8-1.8-1.1-3.1-0.8c-1.9,0.5-3.3,1.6-4.2,3.2c-1.3,2.5-1.3,6.5,0,11.4c0.8,3.4,2,6.2,2.2,6.8
				c2.4,1.5,4.2,4.3,4.9,7.5c0.4,1.8,0.4,3.6,0.1,5.3c-0.1,0.5-0.2,1.1-0.4,1.6c-0.2,0.5-0.3,1-0.5,1.5c-0.4,0.8-0.8,1.6-1.3,2.3
				c0.5,0.4,1.7,1,3.5,0.1c2.8-1.6,3.7-4.1,2.8-7.8c-0.2-0.9-0.5-1.9-1-2.9c-0.4-1-0.9-2.1-1.5-3.2c-0.8-1.6-1.7-3.3-2.6-4.9
				c-2-3.5-3.8-6.9-4.7-9.8c-1-3.5-0.4-6,1.8-7.6l0,0l0,0c1.3-0.6,2.2-0.2,2.7,0.2c1.5,1.3,1.4,4.9,0.5,7.5
				c-0.6,1.6-0.7,2.9-0.2,3.4c0.2,0.3,0.6,0.3,1.2,0.2c0.6-0.1,1-0.1,1.4,0.2c0.1,0,0.1,0.1,0.2,0.2c0-0.2-0.1-0.3-0.1-0.5
				c0,0,0,0,0-0.1C38.8,48.7,38.6,48.6,38.3,48.7z M38.9,42.5c-0.2,0.9-0.5,1.9-0.9,2.7v0c-0.9,2-0.7,2.4-0.6,2.5
				c0.1,0.1,0.3,0.1,0.7,0c0.3-0.1,0.5-0.1,0.8,0V42.5z M25.6,39.7c-2.7,6.9-2.7,13.3-2.3,17.5c0.2,1.7,0.5,3.2,0.7,4.4
				c0-0.1,0-0.2,0-0.3c0.4-2.7,1.5-4.6,3.4-5.6c1.5-0.8,2.7-0.7,3.5-0.5c-0.5-1.2-1.3-3.4-1.9-5.9c-0.6-2.3-0.9-4.4-0.9-6.2
				c-0.1-2.3,0.3-4.3,1-5.8c1-1.9,2.6-3.2,4.7-3.7c2.1-0.5,3.3,0.3,4,1c0.4,0.5,0.7,1.1,0.9,1.8v-27H36c-0.6,7.7-5.3,18.6-8.4,25.9
				C26.8,36.9,26.1,38.5,25.6,39.7z M23,76.8c-1.3-0.8-2.4-1.8-3.3-3.2c-0.4-0.6-0.8-1.3-1.1-2H12V48.1c-0.5-0.1-1.2-0.3-1.9-0.9
				c-0.7-0.6-1.6-1.7-1.8-3.7c-0.1-1.4,0-2.6,0.1-3.4c0-0.3,0.1-0.6,0.1-0.8c0-0.1-0.1-0.2-0.2-0.3c-0.3-0.3-0.6-0.6-0.8-1.4
				c-0.1-0.6,0-1.1,0.4-1.4c0.3-0.3,1-0.6,1-0.6s-0.5,0.7-0.5,1.1c0,0.5,0.7,0.8,1.2,1c0.3,0.1,0.7,0.3,0.9,0.7
				c0.3,0.7,0.5,1.7,0.6,3.3c0,0.6,0.4,1.3,1,1.6c0,0,0,0,0,0V22.2c-0.7-3.2-1.2-6.3-1.2-9.1c0-4.9,1.6-7.9,5-9
				c1.9-0.6,3.6-0.4,5.1,0.8c0.8,0.7,1.4,1.5,1.8,2.1c0.4-1.5,1.5-4.3,3.8-5.9c1.4-0.9,3.1-1.2,4.9-0.8c1.7,0.4,2.9,1.3,3.7,2.8
				C35.8,4.3,36,5.9,36,7.8h4.3v53.3c0.8,1.7,1.4,3.3,1.8,4.9c1,4-0.1,6.9-3.2,8.8l0,0c-1.5,0.8-2.7,0.6-3.5,0.3
				c-0.4-0.1-0.6-0.3-0.9-0.4c-0.3,0.4-0.7,1-1.4,1.5C32.1,77,30.3,78,27.5,78c-0.1,0-0.1,0-0.2,0C25.8,78,24.3,77.6,23,76.8z
				 M20.1,46.5c3.4-8.7,6.7-20.1,4.8-24.7c-0.6,0.5-1.7,1.3-3.1,1.3c-1.2,0-2.1-0.5-2.8-1c0.3,2,0.8,6.6,0.8,11.2
				c0,6.2-1,10.6-3,12.9c-0.9,1.1-2.1,1.8-3.5,1.9v21.9H18c-0.8-2.3-1.2-4.9-1.2-7.8C16.8,57.5,17.9,52,20.1,46.5z M18.9,20.7
				c0.2,0.3,1.4,1.5,3,1.5c0.5,0,0.9-0.1,1.3-0.2c0.8-0.3,1.8-0.9,2.4-1.6c0.4-0.5,1.4-2,1.5-2.1c-0.5,1.1-1.1,2.4-1.4,2.8
				c2,4.1-0.4,13.3-2.5,19.7c-0.9,2.8-1.8,5-2.2,6c-3.5,8.8-4.2,17.4-2,23.3c0.2,0.5,0.4,1,0.6,1.5c0.3,0.5,0.5,1,0.9,1.5
				c1.7,2.6,4.2,4,7,4.1c4.9,0.1,6.8-3.5,6.8-3.5v0c0.5-0.7,0.8-1.4,1.2-2.1c0.2-0.5,0.4-1,0.6-1.5c0.8-2.2,0.9-4.5,0.4-6.8
				c-0.3-1.5-0.9-2.9-1.7-4.1c-0.8-1.2-1.8-2.2-2.9-2.9l0,0c-0.1-0.1-1.5-1.2-3.7,0c-1.6,0.9-2.6,2.5-2.9,5c-0.2,1.7,0,3.2,0,3.4
				c0.2,0.8,1.1,2.9,2.3,3.2c0.6,0.2,3-1.2,3-1.2c-0.3,0.7-0.8,1.3-1.4,1.7c-0.4,0.3-0.9,0.4-1.3,0.4c-0.2,0-0.3,0-0.5-0.1
				c-1.9-0.5-2.8-3.4-2.9-3.8c-0.1-0.3-1.2-3.2-1.7-7.7c-0.3-2.7-0.3-5.5,0-8.2c0.3-2.7,0.9-5.4,1.7-8c0.2-0.6,0.4-1.2,0.6-1.8
				c0.5-1.2,1.1-2.8,1.9-4.6c2-4.6,4.7-11,6.5-16.9c1-3.4,1.6-6.3,1.8-8.6c0-0.5,0.1-1,0.1-1.5c0-1.8-0.3-3.2-0.8-4.3
				c-0.7-1.3-1.7-2-3.1-2.3c-1.6-0.3-3-0.1-4.3,0.7c-2.3,1.6-3.3,4.8-3.6,5.9c-0.1,0.3-0.1,0.4-0.1,0.4l0,0c0,0,0,0,0,0
				c0.1,0.3,0.2,0.6,0.3,1c0.1,0.3,0.1,0.7,0.2,1.1c0.2,1.5-0.2,3-1,4.2l0,0c0,0,0.6-3.2,0-5.3c-0.2-0.6-0.3-1.1-0.4-1.2
				c0-0.1-0.1-0.1-0.1-0.2c-0.7-1.3-2.6-4-6.1-2.8c-1.5,0.5-2.6,1.4-3.4,2.8c-0.3,0.5-0.5,1.1-0.7,1.8c-0.3,1-0.4,2.2-0.4,3.6
				c0,1.3,0.1,2.8,0.4,4.3c0.3,2.4,0.9,4.8,1.4,7.3c0.2,0.8,0.4,1.6,0.6,2.3c0.9,4,1.8,7.7,2,10.8c0.1,1.7,0,3-0.3,4
				c-0.4,1.2-1.1,2-2.1,2.5c0,0-0.1,0-0.1,0c-0.5,0.2-1,0.2-1.4,0c-0.2-0.1-0.3-0.1-0.5-0.2c-0.8-0.5-1.3-1.4-1.4-2.3
				c-0.1-1.5-0.2-2.4-0.5-2.9c-0.1-0.1-0.3-0.2-0.5-0.3c0,0-0.1,0-0.1-0.1c0.2,0.2,0.3,0.4,0.4,0.8c0,0.2,0,0.6-0.1,1
				c-0.1,0.8-0.3,1.9-0.1,3.2C9.4,46,10.9,47,12,47.3c0.3,0.1,0.5,0.1,0.8,0.1c0.2,0,0.5,0,0.7-0.1c1.1-0.2,2-0.7,2.8-1.6
				c2-2.3,4-8.4,1.9-23.8c0-0.3-0.1-0.5-0.1-0.6c0,0,0-0.1,0-0.1c-0.2-0.4-0.6-1-0.8-2c-0.2-0.8-0.4-1.5-0.2-2.9
				C17.1,16.2,17.5,19.7,18.9,20.7z"/>
		</g>
		<g>
		</g>
	</g>
</g>
</svg>
