<?xml version="1.0" encoding="utf-8"?>
<!-- Generator: Adobe Illustrator 24.0.0, SVG Export Plug-In . SVG Version: 6.00 Build 0)  -->
<svg version="1.1" id="Layer_1" xmlns="http://www.w3.org/2000/svg" xmlns:xlink="http://www.w3.org/1999/xlink" x="0px" y="0px"
	 width="601.85px" height="1339.84px" viewBox="0 0 601.85 1339.84" style="enable-background:new 0 0 601.85 1339.84;"
	 xml:space="preserve">
<g>
	<path d="M595.95,1132.76c-6.35-26.66-17.46-54.94-31.06-83.9V131.57h-74.31c0.28-31.78-4.37-59.47-15.56-81.11
		c-13.09-25.3-34.42-41.28-63.39-47.49c-31.65-6.78-60.09-1.95-84.55,14.35c-39.19,26.12-58.03,74.82-65.68,101
		c-6.53-10.51-16.74-24.63-31.06-35.82c-25.57-19.98-55.33-24.51-88.47-13.47C83.73,88.4,55.72,138.98,56.24,223.67
		c0.29,47.55,9.33,101.44,21.15,156.69v364.26c-0.17-0.1-0.35-0.2-0.5-0.3c-9.53-5.97-16.16-17.12-16.49-27.74
		c-0.87-28.07-3.91-45.63-9.86-56.93c-3.41-6.47-9.73-9.32-15.31-11.83c-8.22-3.7-19.84-8.88-19.84-17.59
		c0-6.92,8.75-19.33,8.75-19.33s-11.79,6.03-16.92,10.33c-5.78,4.84-8.56,13.92-6.61,24.3c2.34,12.46,8.55,18.65,13.09,23.18
		c2.96,2.95,4.09,4.21,4.21,5.73c0.21,2.56-0.49,7.74-1.31,13.74c-1.82,13.44-4.58,33.75-2.17,58.7
		c3.39,35.1,18.49,54.27,30.56,64.17c11.4,9.35,23.19,13.43,32.4,15.15v402.63h113.06c5.56,12.24,11.86,23.67,18.89,34.22
		c16,24.04,35.32,42.85,57.44,55.89c22.62,13.33,47.67,20.36,74.46,20.88c1.26,0.02,2.49,0.04,3.73,0.04
		c46.67,0,77.96-17.28,96.12-31.99c12-9.71,19.95-19.54,24.54-26.12c3.64,2.59,8.58,5.5,14.74,7.74c12.74,4.64,33.48,7.37,59.9-5.98
		l0.45-0.25C594.4,1251.35,612.47,1202.12,595.95,1132.76z M539.89,156.57v464.69c-3.83-11.98-9.24-22.13-16.16-30.18
		c-11.24-13.05-32.17-26.78-68.11-18.07c-37.79,9.17-65.22,30.54-81.53,63.54c-12.92,26.15-18.84,59.79-17.6,100
		c0.98,31.7,6.39,67.61,16.08,106.74c10.69,43.18,24.36,80.97,32.67,102.25c-14.2-4.36-35.47-5.92-60.8,7.87
		c-32.1,17.47-52.22,50.99-58.17,96.95c-0.25,1.96-0.48,3.91-0.67,5.84c-4.71-20.37-9.47-45.82-12.63-75.16
		c-7.75-71.78-7.28-182.18,38.92-300.51c7.95-20.35,19.55-47.42,32.98-78.76c53.36-124.5,133.98-312.6,144.56-445.2H539.89z
		 M102.39,1203.81V826.4c23.39-3.21,43.4-14.41,59.59-33.4c34.05-39.94,51.4-114.66,51.55-222.09c0.11-79.95-9.56-158.2-14.1-193
		c11.23,8.7,27.86,17.9,47.96,17.9c23.97,0,42.68-13.59,52.64-22.84c31.78,78.48-23.67,275.43-82.95,425.06
		c-37.51,94.67-57.24,188.83-57.07,272.3c0.1,49.68,7.1,94.79,20.5,133.49H102.39z M458.66,1264.4l-0.02,0.03
		c-0.26,0.47-32.75,62.02-117.1,60.38c-48.44-0.94-89.83-25.18-119.71-70.09c-5.42-8.14-10.35-16.8-14.82-25.92
		c-3.92-7.98-7.48-16.32-10.68-25c-37.33-101.36-25.49-248.35,34.7-400.26c22.46-56.7,130.4-340.91,79.96-442.77
		c5.93-7.9,14.63-21.1,22.62-39.35c11.17-25.51,25.28-62.13,21.78-114.13l-3.5,24.5c-11.21,52.69-16.17,62.15-27.17,87.5
		c-4.41,10.16-13.07,22.54-19.47,31.02c-9.25,12.26-21.81,21.72-36.33,26.73c-6.45,2.23-13.73,3.76-21.53,3.76
		c-26.85,0-47.15-21.78-51.18-26.43c-5.01-6.74-41.65-46.4-18.15-122.4c0,0-8.67,15-13.33,44.33c-3.7,23.26-0.23,35.96,2.99,49.61
		c3.96,16.8,10.44,28.45,14.39,34.44c0.07,0.86,0.17,1.74,0.28,2.66c0.3,2.59,0.79,6.32,1.42,11.04
		c34.82,265.16,1.15,368.89-33.23,409.21c-13.41,15.73-29.26,24.93-48.18,27.96c-3.78,0.61-7.67,0.99-11.7,1.1
		c-3.96,0.11-8.51-0.31-13.3-1.46c-19.8-4.75-43.82-21.94-48.02-65.45c-2.24-23.22,0.27-41.72,2.11-55.24
		c1.01-7.44,1.74-12.81,1.39-17c-0.48-5.78-3.34-9.64-6.39-12.88c0.9,0.42,1.77,0.81,2.6,1.19c3.7,1.67,7.19,3.24,8.19,5.15
		c4.77,9.06,7.36,25.07,8.14,50.4c0.48,15.65,9.72,31.35,23.52,39.99c2.74,1.72,5.58,3.09,8.46,4.12c8.32,2.98,17.02,3.07,25,0.19
		c0.82-0.3,1.64-0.62,2.44-0.98c17.32-7.75,29.49-22.13,36.17-42.75c5.76-17.76,7.66-40.3,5.8-68.92
		c-3.39-52.25-18.73-116.9-34.98-185.35c-3.16-13.31-6.33-26.69-9.44-40.06c-9.95-42.83-19.2-85.63-25-125.95
		c-3.71-25.81-6.01-50.61-6.15-73.74c-0.14-23.31,1.89-43.61,6.15-61.12c2.8-11.49,6.57-21.78,11.33-30.89
		c12.4-23.71,31.53-39.54,57.89-48.32c61.25-20.4,92.75,26.61,105.25,48.32c0.75,1.3,1.43,2.52,2.05,3.62
		c1,2.35,4.2,10.23,6.98,21.38c3.59,14.38,6.47,34.18,3.05,54.52c-1.4,8.31-2.25,16.71-2.23,25.14l0.02,10.57l0.08-0.12
		c14.19-21.18,20.6-46.72,17.66-72.04c-0.75-6.51-1.86-12.59-3.11-18.07c-1.53-6.71-3.26-12.51-4.8-17.1
		c0.05-0.17,0.12-0.33,0.16-0.51l0.06-0.29c0.03-0.14,0.53-2.75,1.62-7.11c4.94-19.66,21.96-75.08,62-101.77
		c20.97-13.97,45.56-18.07,73.09-12.16c24.72,5.3,42.13,18.29,53.21,39.71c9.58,18.52,14.21,43.31,13.9,74.22
		c-0.08,7.92-0.5,16.27-1.23,25c-3.4,40.82-13.88,90.36-31.46,148.4c-30.94,102.15-77.69,211.24-111.83,290.9
		c-13.48,31.46-25.13,58.63-33.17,79.21c-20.93,53.6-34.52,110.09-40.39,167.91c-4.7,46.23-4.5,93.41,0.59,140.21
		c8.4,77.24,27.06,126.97,29.01,132c1.56,5.4,17.25,56.96,49.81,64.84c2.85,0.69,5.72,1.04,8.61,1.04c7.38,0,14.88-2.25,22.44-6.74
		c11.1-6.59,19.58-16.82,24.56-28.73l8.59-20.56c0,0-24.43,24.27-25.38,25.25c-12.59,13.1-25.04,17.64-35.29,15.17
		c-20.65-4.99-34.97-40.53-38.91-54.31c-0.53-3.42-4.29-29.48-0.37-59.23c5.45-41.38,22.41-70.09,50.42-85.34
		c36.86-20.06,62.23-0.75,63.26,0.06l0.87,0.54l-0.03,0.04c38.24,22.91,68.96,68.96,80.17,120.17c8.42,38.47,5.93,78.34-6.87,116.39
		c-2.84,8.43-6.18,16.78-10.03,25c-5.7,12.17-12.48,24.07-20.35,35.58L458.66,1264.4z M102.39,744.8V488.56
		C130.52,607.86,153.07,716.72,102.39,744.8z M533.28,1270.23c-31.2,15.67-51.78,4.82-59.91-1.35c8.6-13.01,15.92-26.39,21.95-40.07
		c3.62-8.23,6.77-16.57,9.45-25c2.92-9.21,5.29-18.54,7.07-27.96c5.76-30.61,5.32-61.44-1.29-91.64
		c-12.05-55.02-43.74-102.84-85.01-128.53c-4.42-10.43-24.15-58.38-38.45-116.21c-21.06-85.18-20.9-153.05,0.47-196.27
		c14.25-28.83,38.34-47.53,71.61-55.6c22.93-5.56,40.83-1.09,53.2,13.27c26.3,30.55,25.81,103.4-1.12,169.48
		c-13.52,31.8-15.79,49.53-7.6,59.27c5.31,6.31,14.13,8.07,26.22,5.24c4.59-1.08,7.73-0.02,10.02,3.41
		c0.23,0.34,0.45,0.69,0.66,1.08c1.18,2.16,1.98,4.84,2.38,7.83c-0.93-1.02-1.95-1.92-3.04-2.71c-5.63-4.07-13.43-5.09-23.29-3
		c-9.45,2.01-16.19,0.81-20.03-3.57c-7.78-8.86-6.51-30.96,3.4-59.1c15.79-44.82,17-105.05-8.29-128.27
		c-8.25-7.57-22.9-14.42-45.87-4.06l-0.75,0.34l-0.66,0.49c-37.86,28.31-47.89,71.24-30.69,131.26
		c14.79,51.57,46.85,108.87,80.8,169.53c15.57,27.81,31.36,56.04,45.37,83.76c9.31,18.41,17.84,36.61,25,54.31
		c6.97,17.24,12.64,34.01,16.46,50.07C596.34,1199.14,581.06,1241.72,533.28,1270.23z M539.89,728.83v91.68
		c-4.1-1.25-8.65-1.38-13.45-0.25c-6.82,1.6-10.32,0.9-11.32-0.29c-1.35-1.61-4.63-9.52,9.95-43.8l0.04-0.1
		C531.33,760.82,536.29,744.86,539.89,728.83z M485.3,847.8c5.29,6.02,15.55,12.35,34.42,8.35c3.52-0.75,9.8-1.58,12.22,1.24
		c3.91,4.56,1.38,18.17-1.55,25.92l-12.04,31.54l21.55-20.84v105.38c-10.44-19.55-21.41-39.17-32.29-58.6
		c-65.13-116.39-126.66-226.34-54.89-280.96c12.27-5.35,21.7-4.77,28.81,1.76c17.95,16.48,19.91,67.88,4.29,112.24
		C473.73,808.14,473.54,834.41,485.3,847.8z"/>
</g>
</svg>
